<?xml version="1.0" encoding="utf-8"?>
<!-- Generator: Adobe Illustrator 23.0.1, SVG Export Plug-In . SVG Version: 6.00 Build 0)  -->
<svg version="1.1" xmlns="http://www.w3.org/2000/svg" xmlns:xlink="http://www.w3.org/1999/xlink" x="0px" y="0px"
	 viewBox="0 0 1513 778" style="enable-background:new 0 0 1513 778;" xml:space="preserve">
<style type="text/css">
	.st0{display:none;}
	.st1{display:inline;}
	.st2{font-family:'PaulSignature';}
	.st3{font-size:400px;}
</style>
<g id="van">
	<g>
		<g>
			<path d="M1117.14,293.25c-3.63-7.57-10.47-13.08-16.44-18.76c-7.33-6.99-14.71-13.93-22.14-20.83
				c-13.04-12.1-25.92-25.73-42.44-33.03c-16.32-7.21-34.43-9.48-52.04-11.21c-19.1-1.88-38.34-2.6-57.52-3.17
				c-20.43-0.61-40.88-0.62-61.31-1.37c-1.58-0.06-3.06,1.42-3,3c1.87,50.41,4.21,100.81,7.53,151.14c0.11,1.65,1.29,2.95,3,3
				c63.66,1.84,127.39,4,191.08,4.18c8.04,0.02,16.34-0.28,23.9-3.31c7.62-3.05,13.35-9.73,21.36-11.81
				c3.73-0.97,2.15-6.76-1.59-5.79c-6.41,1.66-11.2,5.84-16.69,9.29c-7.14,4.49-15.26,5.46-23.53,5.59
				c-15.13,0.23-30.31-0.28-45.44-0.54c-32.05-0.54-64.09-1.3-96.14-2.15c-17.65-0.47-35.31-0.97-52.96-1.48c1,1,2,2,3,3
				c-3.32-50.34-5.66-100.73-7.53-151.14c-1,1-2,2-3,3c35.14,1.29,70.32,0.94,105.43,3.42c17.87,1.26,36.26,2.84,53.44,8.21
				c17.97,5.61,30.9,17.59,44.45,30.08c7.69,7.09,15.33,14.23,22.93,21.42c7.04,6.67,16.21,13.37,20.47,22.28
				C1113.63,299.76,1118.81,296.72,1117.14,293.25L1117.14,293.25z"/>
		</g>
	</g>
	<g>
		<g>
			<path d="M1114.85,283.92c-4.3,9.2-5.09,20.49-6.42,30.46c-1.37,10.24-2.2,20.78-0.84,31.07c1,7.52,4.4,14.07,12.36,15.72
				c4.52,0.94,9.31,0.41,13.88,0.26c5.41-0.18,10.87-0.16,16.26-0.56c9.24-0.68,12.12-6.54,12.1-15.14
				c-0.01-4.67-0.18-9.65-1.26-14.21c-1.15-4.87-5.31-6.55-7.44-10.73c-3.06-6.01-2.06-13.46-4.37-19.83
				c-2-5.49-4.7-10.84-8.12-15.58c-3.14-4.35-7.34-9.2-12.92-10.15C1121.9,274.18,1117.57,278.96,1114.85,283.92
				c-1.85,3.39,3.32,6.42,5.18,3.03c1.8-3.3,4.3-7.04,8.49-5.38c3.6,1.43,6.42,5.42,8.47,8.51c5.04,7.59,7.48,15.13,8.68,24.05
				c0.42,3.09,0.94,6.16,2.29,9c1.26,2.67,3.11,4.14,5.02,6.27c3.08,3.44,2.97,8.92,3.14,13.38c0.16,4.05,1.07,10.41-3.86,11.8
				c-3.64,1.02-8.2,0.5-11.96,0.63c-4.25,0.14-8.51,0.33-12.76,0.42c-3.48,0.07-7.32,0.19-10.2-2.05c-3.17-2.46-3.7-7.13-4.05-10.85
				c-0.89-9.53-0.14-19.2,1.17-28.65c1.21-8.75,1.78-19.06,5.56-27.13C1121.66,283.47,1116.49,280.42,1114.85,283.92z"/>
		</g>
	</g>
	<g>
		<g>
			<path d="M1143.5,302.84c8.37,11.2,24.94,14.82,30.16,28.48c3.31,8.65,2.96,18.49,3.31,27.6c0.37,9.77,0.68,19.53,0.91,29.3
				c0.97,40.48,0.72,81-1.07,121.46c2,0,4,0,6,0c0.01-0.34,0.03-0.69,0.04-1.03c0.09-2.11-1.98-3.2-3.8-2.89
				c-29.25,4.93-56.58,20.57-75.27,43.68c-19.58,24.21-29.27,55.52-27.08,86.55c0.27,3.83,6.27,3.86,6,0
				c-2.11-29.88,7.07-60.39,26.32-83.51c18.12-21.76,43.76-36.23,71.63-40.93c-1.27-0.96-2.53-1.93-3.8-2.89
				c-0.01,0.34-0.03,0.69-0.04,1.03c-0.16,3.86,5.83,3.85,6,0c1.85-41.76,2.05-83.58,0.97-125.37c-0.27-10.41-0.62-20.82-1.05-31.23
				c-0.34-8.35-0.63-16.99-3.88-24.82c-5.83-14.04-21.63-17-30.19-28.45C1146.39,296.75,1141.18,299.74,1143.5,302.84L1143.5,302.84
				z"/>
		</g>
	</g>
	<g>
		<g>
			<path d="M1127.76,277.06c-4.26-6.44-11.56-11.72-17.21-16.91c-11.63-10.67-22.67-21.97-34.44-32.49
				c-10.49-9.38-21.3-18.97-34.13-25.04c-12.96-6.14-27.13-8.47-41.24-10.25c-39.75-5.01-80.16-5.9-120.17-7.05
				c-10.95-0.31-21.91-0.6-32.87-0.78c-1.48-0.02-3.2,1.4-3,3c3.6,29.32,3.52,58.9,3.45,88.39c-0.06,29.82,0.39,59.64,0.69,89.45
				c0.59,58.37-0.61,116.59-5.83,174.76c-2.94,32.83-6.91,65.56-11.29,98.22c-0.51,3.81,5.49,3.78,6,0
				c7.6-56.57,13.69-113.33,16.05-170.39c2.49-60.25,0.36-120.51,0.37-180.78c0.01-33.23,0.62-66.6-3.44-99.65c-1,1-2,2-3,3
				c27.45,0.45,54.89,1.33,82.31,2.6c19.67,0.91,39.36,1.98,58.96,3.91c11.95,1.18,24.01,2.54,35.63,5.64
				c14.54,3.88,26.68,11.54,38.09,21.18c12.76,10.79,24.6,22.56,36.7,34.06c4.8,4.56,9.79,8.93,14.57,13.52
				c2.67,2.57,6.9,6.05,8.62,8.64C1124.69,283.3,1129.89,280.3,1127.76,277.06L1127.76,277.06z"/>
		</g>
	</g>
	<g>
		<g>
			<path d="M857.42,379.56c2.66,0.16,5.3,0.38,7.93,0.8c1.16,0.19,2.31,0.4,3.46,0.64c1.64,1.56,2.4,3.4,2.28,5.53
				c0.68,4.49,0.65,9.21,0.88,13.74c0.23,4.48,0.81,9.27,0.51,13.76c-0.26,3.78-0.66,5.56-4.37,6.68c-2.57,0.78-5.18,0.8-7.83,0.62
				c-3.85-0.27-3.84,5.73,0,6c5.44,0.39,13.44-0.34,16.84-5.37c1.6-2.37,1.39-5.21,1.35-7.93c-0.07-4.59-0.27-9.18-0.51-13.76
				c-0.22-4.26-0.48-8.51-0.81-12.76c-0.21-2.82,0.11-6.76-1.59-9.26c-3.24-4.77-13.14-4.39-18.15-4.69
				C853.56,373.33,853.57,379.33,857.42,379.56L857.42,379.56z"/>
		</g>
	</g>
	<g>
		<g>
			<path d="M431.51,637.44c0.36-66.2,2.37-132.4,4.38-198.56c1.33-43.65,2.77-87.31,4.48-130.95c1.68-42.99,3.21-86.13,7.63-128.94
				c-1,1-2,2-3,3c71.04,0.01,142.07,0.92,213.08,2.76c45.28,1.17,90.56,2.27,135.84,3.7c12.25,0.39,24.5,0.78,36.75,1.19
				c-1-1-2-2-3-3c2.5,116.78,3.07,233.75-3.68,350.4c-1.94,33.48-4.52,66.91-7.98,100.27c-0.4,3.84,5.6,3.81,6,0
				c12.37-119.27,14.22-239.52,13.11-359.34c-0.28-30.45-0.8-60.89-1.45-91.33c-0.04-1.66-1.35-2.94-3-3
				c-31.45-1.06-62.9-2.04-94.35-2.94c-56.79-1.63-113.6-3-170.4-3.83C525.61,176.3,485.31,176,445,176c-1.74,0-2.83,1.38-3,3
				c-6.37,61.72-7.6,124.07-9.73,186.05c-1.86,54.18-3.51,108.38-4.84,162.58c-0.9,36.6-1.72,73.21-1.92,109.82
				C425.49,641.31,431.49,641.31,431.51,637.44L431.51,637.44z"/>
		</g>
	</g>
	<g>
		<g>
			<path d="M785.52,201.82c6.68,0.09,14.88,0.11,20.11,4.94c5.8,5.36,5.18,14.72,5.42,21.94c0.53,15.84,0.71,31.7,0.75,47.55
				c0.04,14.82-0.05,29.64-0.13,44.47c-0.03,6.21-0.06,12.41-0.05,18.62c0.01,8.25-0.96,16.11-10.69,17.19
				c-8.07,0.9-16.55,0.08-24.66,0c-8.98-0.08-17.97-0.17-26.95-0.25c-17.98-0.17-35.96-0.34-53.94-0.51
				c-35.96-0.34-71.92-0.67-107.89-1.01c-36.29-0.34-72.59-0.68-108.88-1.02c-6.18-0.06-17.75,1.64-21.26-5.08
				c-1.69-3.23-1.28-7.63-1.36-11.16c-0.08-3.81-0.15-7.61-0.2-11.42c-0.2-16.41-0.07-32.82,0.43-49.22
				c0.68-22.2,1.59-44.46,3.09-66.63c0.37-5.39-0.32-12.08,6.72-12.31c8.89-0.29,17.86,0.14,26.75,0.23
				c17.72,0.18,35.44,0.4,53.16,0.65c70.95,1,141.89,2.09,212.85,2.76C767.7,201.65,776.61,201.74,785.52,201.82
				c3.86,0.04,3.87-5.96,0-6c-77.24-0.74-154.48-1.79-231.72-2.91c-19.35-0.28-38.7-0.53-58.04-0.73
				c-9.57-0.1-19.15-0.24-28.72-0.25c-6.11,0-11.18,1.61-12.7,8.13c-2.32,9.96-1.7,21.27-2.19,31.42
				c-0.52,10.89-0.99,21.78-1.45,32.67c-0.79,18.36-1.09,36.74-0.96,55.11c0.05,7.86-0.07,15.8,0.41,23.65
				c0.4,6.58,2.71,12.22,9.12,14.88c6.55,2.72,14.43,1.9,21.35,1.96c9.66,0.09,19.31,0.18,28.97,0.27
				c19.65,0.18,39.29,0.37,58.94,0.55c38.96,0.36,77.92,0.73,116.88,1.09c19.65,0.18,39.29,0.37,58.94,0.55
				c9.65,0.09,19.3,0.18,28.95,0.27c9.12,0.09,18.56,0.89,27.66,0.03c6.21-0.59,11.82-3.03,14.63-8.9
				c2.87-5.99,2.04-13.01,2.05-19.46c0.03-14.97,0.16-29.94,0.19-44.91c0.03-17.29-0.06-34.58-0.5-51.87
				c-0.34-13.15,1.61-31.6-12.61-38.35c-5.94-2.82-12.72-3.12-19.18-3.21C781.65,195.77,781.65,201.77,785.52,201.82z"/>
		</g>
	</g>
	<g>
		<g>
			<path d="M779.15,377.72c0.34-5.35,13.16-3.06,16.74-2.93c3.05,0.11,6.11,0.16,9.15,0.33c0.82,0.04,3.81-0.08,4.31,0.46
				c0.38,0.4,0.2,1.97,0.23,2.45c0.81,10.99,0.97,22.22,0.17,33.21c-0.21,2.92-0.11,6.29-3.42,7.44c-2.41,0.84-6.12,0.03-8.6-0.14
				c-2.84-0.19-5.68-0.39-8.52-0.58c-2.8-0.19-7.17,0.21-9.24-1.91c-3.76-3.85-1.75-13.58-1.58-18.53
				C778.62,390.92,778.89,384.32,779.15,377.72c0.16-3.86-5.84-3.85-6,0c-0.42,10.43-1.24,20.96-1.1,31.4
				c0.09,6.31,2.06,12.61,8.96,14.13c4.15,0.91,8.71,0.75,12.93,1.03c3.89,0.26,7.93,0.9,11.82,0.52c7-0.69,9.31-5.7,9.87-12.06
				c0.75-8.57,0.58-17.2,0.37-25.79c-0.12-5.24,1.53-15.4-5.06-17.15c-3.88-1.03-8.21-0.75-12.19-0.89
				c-4.46-0.16-8.93-0.36-13.39-0.35c-6.79,0.03-11.74,1.64-12.21,9.17C772.91,381.58,778.91,381.56,779.15,377.72z"/>
		</g>
	</g>
	<g>
		<g>
			<path d="M793.17,380.38c-0.32,11.32-0.63,22.65-0.95,33.97c-0.11,3.86,5.89,3.86,6,0c0.32-11.32,0.63-22.65,0.95-33.97
				C799.28,376.52,793.28,376.52,793.17,380.38L793.17,380.38z"/>
		</g>
	</g>
	<g>
		<g>
			<path d="M155.87,188.07c-3.82,0.41-7.71,0.98-10.79,3.49c-3.8,3.11-5.37,8.06-7.2,12.44c-4.47,10.68-8.72,21.44-12.73,32.3
				c-8.1,21.97-15.2,44.32-21.04,67c-3.39,13.15-11.52,41.85,10.21,42.65c8.5,0.31,17,0.64,25.5,0.92
				c65.1,2.16,130.22,3.75,195.33,5.43c16.68,0.43,33.35,0.85,50.03,1.28c7.77,0.2,17.24,1.75,24.38-2.05
				c8.65-4.6,8.34-15.28,9.1-23.76c2.19-24.46,4.06-48.94,5.63-73.44c0.77-12.09,1.47-24.18,2.09-36.28
				c0.38-7.44,3.04-19.22-3.77-24.69c-5.65-4.54-16.73-3.21-23.77-3.39c-9.55-0.25-19.11-0.44-28.66-0.62
				c-25.6-0.47-51.21-0.82-76.81-1.11c-44.1-0.5-88.37-1.74-132.46-0.41C159.23,187.88,157.54,187.92,155.87,188.07
				c-3.82,0.34-3.85,6.34,0,6c12.08-1.08,24.46-0.52,36.57-0.53c23.18-0.01,46.36,0.16,69.54,0.37
				c45.62,0.41,91.25,0.84,136.86,2.05c3.06,0.08,6.13,0.17,9.19,0.28c5.59,0.2,12.21-0.31,12.89,6.91
				c0.46,4.87-0.3,10.05-0.55,14.91c-0.3,5.89-0.62,11.77-0.96,17.65c-0.66,11.44-1.38,22.87-2.17,34.31
				c-0.79,11.43-1.65,22.86-2.58,34.28c-0.91,11.26-0.98,23.15-3.11,34.25c-2.19,11.39-14.37,9.35-23.25,9.13
				c-7.55-0.19-15.1-0.38-22.66-0.57c-64.69-1.65-129.39-3.3-194.08-5.22c-11.57-0.34-23.13-0.7-34.7-1.09
				c-7.94-0.27-16.48,0.23-24.35-0.86c-10.73-1.5-6.25-19.17-4.83-25.85c2.35-11.03,5.54-21.93,8.76-32.74
				c6.23-20.91,13.46-41.51,21.52-61.78c1.85-4.66,3.75-9.31,5.69-13.94c0.96-2.29,1.84-4.83,3.18-6.95
				c2.15-3.42,5.26-4.17,9.03-4.58C159.67,193.66,159.71,187.66,155.87,188.07z"/>
		</g>
	</g>
	<g>
		<g>
			<path d="M412.81,440.88c6.33,0.39,10.24,0.79,10.76-6.36c0.32-4.43,2.43-14.14-2.67-16.62c-2.48-1.21-5.73-0.83-8.51-0.9
				c-5.89-0.15-11.78-0.3-17.67-0.46c-25.45-0.66-50.9-1.32-76.35-1.97c-34.05-0.88-68.09-1.76-102.14-2.64
				c-30.42-0.79-60.84-1.57-91.26-2.36c-15.09-0.39-30.2-0.6-45.29-1.17c-0.52-0.02-1.02-0.05-1.54-0.07
				c-2.45-0.12-5.3-0.85-7.53,0.45c-2.49,1.46-2.25,4.36-2.42,6.95c-0.29,4.3-2.24,13.86,3.19,15.8c2.05,0.73,4.48,0.63,6.64,0.7
				c4.36,0.14,8.73,0.23,13.09,0.34c23.71,0.61,47.42,1.23,71.13,1.84c33.49,0.87,66.99,1.73,100.48,2.6
				c31.5,0.81,63,1.63,94.5,2.44c17.69,0.46,35.39,0.91,53.08,1.37C411.15,440.84,411.98,440.86,412.81,440.88
				c3.86,0.1,3.86-5.9,0-6c-11.59-0.3-23.19-0.6-34.78-0.9c-27.66-0.71-55.31-1.43-82.97-2.14c-33.03-0.85-66.06-1.71-99.09-2.56
				c-27.71-0.72-55.42-1.43-83.13-2.15c-11.7-0.3-23.41-0.45-35.1-0.91c-0.08,0-1.62-0.03-1.71-0.04c-0.43-0.05-0.87-0.09-1.3-0.14
				c-1.28,0.3-1.65-0.07-1.1-1.11c-0.39-1.21,0.24-4.02,0.31-5.37c0.05-0.92-0.24-4.7,0.06-5.17c0.25-0.39,0.33-0.17,1.5-0.24
				c1.13-0.06,2.41,0.17,3.52,0.22c0.22,0.01,0.44,0.01,0.66,0.02c1.6,0.06,3.19,0.08,4.79,0.12c7.24,0.19,14.49,0.37,21.73,0.56
				c26.4,0.68,52.79,1.36,79.19,2.05c32.95,0.85,65.9,1.7,98.85,2.55c28.91,0.75,57.81,1.49,86.72,2.24
				c14.17,0.37,28.35,0.76,42.52,1.1c0.2,0,0.41,0.01,0.61,0.02c0.08,0,1.62,0.03,1.71,0.04c0.43,0.05,0.87,0.09,1.3,0.14
				c1.28-0.3,1.65,0.07,1.1,1.11c0.39,1.21-0.24,4.02-0.31,5.37c-0.05,0.92,0.24,4.7-0.06,5.17c-0.25,0.39-0.33,0.17-1.5,0.24
				c-1.11,0.06-2.43-0.15-3.52-0.22C408.96,434.64,408.97,440.64,412.81,440.88z"/>
		</g>
	</g>
	<g>
		<g>
			<path d="M1446.32,499.03c-12.78,0.15-25.57,0.29-38.35,0.43c-6.17,0.07-12.35,0.17-18.52,0.21c-3.95,0.03-6.27-0.92-6.59-5.23
				c-0.17-2.25,0.23-4.58,0.48-6.81c0.76-6.54,1.7-13.07,2.95-19.54c0.76-3.97,0.88-12.53,5.71-13.48
				c6.18-1.22,13.5-0.48,19.78-0.42c6.77,0.06,13.54,0.33,20.3,0.78c3.86,0.25,3.84-5.75,0-6c-8.69-0.57-17.4-0.85-26.11-0.78
				c-5.69,0.05-15.03-1.41-19.85,2.38c-4.05,3.18-4.32,9.44-5.25,14.1c-1.53,7.6-2.63,15.28-3.52,22.97
				c-0.56,4.89-1.31,10.73,2.14,14.81c3.87,4.59,11.07,3.22,16.36,3.16c16.83-0.19,33.66-0.37,50.48-0.57
				C1450.18,504.98,1450.19,498.98,1446.32,499.03L1446.32,499.03z"/>
		</g>
	</g>
	<g>
		<g>
			<path d="M1364.74,539.81c-11.5-0.07-23.01-0.43-34.51-0.17c-3.85,0.09-3.87,6.09,0,6c11.49-0.26,23.01,0.1,34.51,0.17
				C1368.6,545.84,1368.6,539.84,1364.74,539.81L1364.74,539.81z"/>
		</g>
	</g>
	<g>
		<g>
			<path d="M1364.74,530.05c-13.24-0.08-26.5-0.51-39.74-0.2c-3.85,0.09-3.87,6.09,0,6c13.24-0.31,26.5,0.12,39.74,0.2
				C1368.6,536.07,1368.6,530.07,1364.74,530.05L1364.74,530.05z"/>
		</g>
	</g>
	<g>
		<g>
			<path d="M1364.74,520.32c-15.57-0.09-31.17-0.6-46.74-0.23c-3.85,0.09-3.87,6.09,0,6c15.57-0.37,31.17,0.14,46.74,0.23
				C1368.6,526.34,1368.6,520.34,1364.74,520.32L1364.74,520.32z"/>
		</g>
	</g>
	<g>
		<g>
			<path d="M54.09,460.88c0.26-44.92,5.93-89.67,15.85-133.45c8.17-36.05,19.38-71.64,31.25-106.63
				c6.08-17.93,12.45-35.95,20.91-52.92c1.72-3.45-3.46-6.49-5.18-3.03c-15.46,31.02-25.38,64.97-35.46,98.02
				c-12.18,39.94-22.31,80.16-27.9,121.6c-3.42,25.33-5.31,50.84-5.46,76.4C48.07,464.74,54.07,464.74,54.09,460.88L54.09,460.88z"
				/>
		</g>
	</g>
	<g>
		<g>
			<path d="M808.35,633.02c-44.19-1.31-88.44-1.42-132.65-1.85c-57.24-0.56-114.49-1.02-171.73-1.35
				c-18.51-0.11-37.02-0.25-55.53-0.2c-3.86,0.01-3.87,6.01,0,6c42.13-0.11,84.26,0.36,126.38,0.68
				c57.83,0.44,115.67,0.93,173.5,1.68c20.01,0.26,40.04,0.45,60.04,1.04C812.21,639.14,812.21,633.14,808.35,633.02L808.35,633.02z
				"/>
		</g>
	</g>
	<g>
		<g>
			<path d="M1064.66,635.03c-58.29-0.78-116.58-1.13-174.88-1.85c-14.31-0.18-28.63-0.36-42.94-0.63c-3.86-0.07-3.86,5.93,0,6
				c60.26,1.11,120.53,1.45,180.8,2.06c12.34,0.13,24.68,0.25,37.02,0.41C1068.52,641.08,1068.53,635.08,1064.66,635.03
				L1064.66,635.03z"/>
		</g>
	</g>
	<g>
		<g>
			<path d="M811.72,488.89c-92.14-1.86-184.3-2.88-276.45-4.31c-26.56-0.41-53.12-0.85-79.68-1.35c-3.86-0.07-3.86,5.93,0,6
				c92.44,1.75,184.89,2.76,277.33,4.24c26.27,0.42,52.54,0.89,78.8,1.42C815.58,494.97,815.58,488.97,811.72,488.89L811.72,488.89z
				"/>
		</g>
	</g>
	<g>
		<g>
			<path d="M1159.64,498.37c-77.08-0.9-154.16-2.6-231.22-4.78c-18.98-0.54-37.97-1.12-56.95-1.81c-3.86-0.14-3.86,5.86,0,6
				c76.85,2.81,153.76,4.39,230.65,5.73c19.17,0.33,38.35,0.64,57.52,0.86C1163.5,504.42,1163.5,498.42,1159.64,498.37
				L1159.64,498.37z"/>
		</g>
	</g>
	<g>
		<g>
			<path d="M1361.13,500.4c-44.19-1.08-88.4-1.46-132.6-1.76c-10.61-0.07-21.22-0.12-31.84-0.12c-3.86,0-3.87,6,0,6
				c44.57-0.02,89.16,0.55,133.73,1.28c10.24,0.17,20.48,0.35,30.71,0.6C1364.99,506.5,1364.99,500.5,1361.13,500.4L1361.13,500.4z"
				/>
		</g>
	</g>
	<g>
		<g>
			<path d="M417.58,481.33c-90-3.04-180.03-4.92-270.05-7.05c-25.92-0.61-51.83-1.25-77.74-1.93c-3.86-0.1-3.86,5.9,0,6
				c90.31,2.39,180.63,4.12,270.93,6.62c25.62,0.71,51.24,1.49,76.86,2.36C421.44,487.46,421.44,481.46,417.58,481.33L417.58,481.33
				z"/>
		</g>
	</g>
	<g>
		<g>
			<path d="M1328.85,563.63c26.79-0.61,53.59-0.66,80.38-0.11c13.87,0.29,27.73,0.73,41.58,1.33c12.57,0.55,31.93-0.69,28.69,17.7
				c-3.72,21.2-15.07,44.35-31.9,58.06c-14.47,11.79-33.19,17.84-51.24,21.5c-15.88,3.22-32.53,4.92-48.73,3.76
				c0.96,1.27,1.93,2.53,2.89,3.8c8.06-23,3.83-52.22-2.83-75.07c-7.8-26.74-23.38-48.61-50.19-58.36
				c-13.16-4.79-27.27-6.61-41.16-7.66c-16.81-1.27-33.87-1.86-50.67-0.19c-28.48,2.83-57.44,13.16-75.68,36.29
				c-9.83,12.46-15.99,27.49-19.66,42.84c-2.17,9.09-3.52,18.38-4.45,27.67c-0.91,9.16,0.2,18.78-3.01,27.56
				c0.96-0.73,1.93-1.47,2.89-2.2c-61.83-2.8-123.76-1.7-185.64-1.97c-62.49-0.27-124.99-0.28-187.48-0.32
				c-86.38-0.05-172.75-0.02-259.12,0.29c-22.94,0.08-45.87,0.17-68.81,0.27c0.96,1.27,1.93,2.53,2.89,3.8
				c8.18-53.74-16.5-110.92-65.94-136.25c-50-25.62-116.51-5.62-150.16,37.89c-8.74,11.3-15.41,24.09-18.38,38.12
				c-3.11,14.69-2.42,29.8-1.23,44.67c1-1,2-2,3-3c-30.79-0.82-61.88,0.22-92.6-2.1c-14.78-1.12-30.5-3.89-43.63-11.09
				c-5.83-3.2-11.25-7.43-14.4-13.42c-5.01-9.51-4.86-21.4-5.45-31.87c-0.72-12.89-0.11-24.83,3.88-37.16
				c4.51-13.91,8.9-26.95,10.74-41.56c4.49-35.66,3.23-71.86,6.7-107.64c4.1-42.19,11.68-84.08,23.25-124.87
				c8.85-31.23,18.3-66.19,40.11-91.16c10.06-11.52,22.53-19.49,37.56-22.54c15-3.04,30.59-3.45,45.85-3.59
				c40.77-0.37,81.61,0.83,122.38,1.23c173.81,1.7,347.66,2.74,521.38,8.97c44.44,1.59,88.86,3.52,133.27,5.87
				c21.45,1.13,43.06,1.67,64,6.95c18.11,4.57,32.35,12.93,46.42,25.03c25.83,22.2,48.85,47.66,74.13,70.52
				c20.88,18.87,42.9,36.22,66.53,51.54c20.51,13.3,41.32,25.53,63.59,35.55c20.71,9.32,41.52,18.4,62.27,27.63
				c18.36,8.16,36.12,17.83,52.94,28.82c10.95,7.16,22.81,15.07,30.67,25.75c11.56,15.69,15.91,36.78,18.28,55.72
				c2.51,20.02,2.73,40.23,4.57,60.31c0.35,3.81,6.35,3.85,6,0c-3.54-38.65,0.04-84.32-22.93-118.01
				c-6.59-9.67-16.4-17.04-25.85-23.72c-11.69-8.26-24.08-15.54-36.69-22.3c-34.44-18.49-72.16-30.35-106.56-48.85
				c-57.88-31.13-107.07-72.98-153.34-119.23c-12.38-12.37-24.75-24.9-38.68-35.56c-14.73-11.28-30.73-17.51-48.96-21.03
				c-20.47-3.96-41.46-4.35-62.22-5.43c-23.22-1.21-46.45-2.3-69.68-3.29c-180.48-7.72-361.14-9.18-541.76-10.88
				c-46.18-0.43-92.36-0.89-138.54-1.47c-15.31-0.19-30.64-0.32-45.92,0.8c-14.15,1.03-28.84,2.63-41.51,9.48
				c-27.09,14.64-41.08,45.05-50.96,72.75c-13.7,38.42-23.33,78.42-29.71,118.67c-6.25,39.4-8.3,78.87-9.96,118.66
				c-0.72,17.21-1.54,34.76-5.49,51.58c-3.01,12.84-9.19,24.74-11.19,37.85c-2.3,15.01-1.19,32.03,1.52,46.87
				c2.59,14.16,11.1,23.74,23.93,29.85c27.72,13.2,60.54,11.02,90.41,11.52c15.21,0.26,30.42,0.44,45.62,0.84
				c1.53,0.04,3.13-1.41,3-3c-1.9-23.63-1.63-46.89,10.71-67.92c13.27-22.6,34.94-39.21,59.07-48.88
				c25.77-10.34,54.85-13.12,81.15-3.08c23.94,9.14,44.03,27.42,57,49.34c15,25.36,20.43,55.46,16,84.52
				c-0.29,1.88,0.76,3.81,2.89,3.8c58.2-0.26,116.41-0.46,174.61-0.58c105.85-0.21,211.7-0.11,317.55,0.24
				c69.6,0.23,139.34-1.1,208.89,2.05c1.39,0.06,2.45-0.99,2.89-2.2c2.02-5.52,2.37-11.21,2.56-17.04
				c0.27-8.35,0.99-16.57,2.29-24.83c2.22-14.18,5.99-28.27,12.74-41c13.61-25.69,38.74-40.01,66.68-45.27
				c15.46-2.91,31.32-3.11,46.99-2.52c13.61,0.51,27.34,1.33,40.71,4.1c13,2.7,25.9,7.37,36.22,15.94
				c10.73,8.92,17.7,21.42,22.41,34.38c4.84,13.32,7.48,27.44,8.59,41.55c1,12.71,1.17,26.25-3.1,38.43
				c-0.69,1.97,1.09,3.67,2.89,3.8c16.12,1.15,32.67-0.56,48.49-3.62c19.44-3.76,39.39-10.3,55.02-22.84
				c18.3-14.68,30.4-39.59,34.38-62.45c4.93-28.28-32.81-24.13-50.45-24.74c-35.4-1.23-70.82-1.41-106.23-0.61
				C1324.99,557.72,1324.98,563.72,1328.85,563.63L1328.85,563.63z"/>
		</g>
	</g>
	<g>
		<g>
			<path d="M33.9,478.27c4.24-0.06,8.48-0.07,12.73-0.02c1.65,0.02,3.8-0.29,5.43,0.11c1.61-0.39,2.72,0.26,3.32,1.95
				c0.01,1.3,0.01,2.61,0.02,3.91c0.05,8.48,0.1,16.96,0.14,25.45c0.02,4.24,0.05,8.48,0.07,12.72c0.01,1.63,0.76,5.45,0.04,6.85
				c-1.02,1.97-3.17,1.43-4.95,1.45c-8.25,0.1-16.5,0.19-24.76,0.29c-3.86,0.05-3.87,5.96,0,6c40.08,0.39,80.13,1.55,120.2,2.6
				c25.98,0.68,51.96,1.35,77.94,2.01c3.86,0.1,3.86-5.9,0-6c-56.4-1.43-112.8-3.29-169.21-4.3c-9.64-0.17-19.29-0.21-28.93-0.31
				c0,2,0,4,0,6c5.6-0.07,11.19-0.13,16.79-0.2c4.47-0.05,10.62,0.99,14.86-0.62c3.53-1.34,4.03-4.53,4.05-7.9
				c0.03-6.2-0.07-12.4-0.11-18.6c-0.03-5.87-0.07-11.74-0.1-17.62c-0.03-4.67,1.2-11.3-0.69-15.7c-1.58-3.68-5.18-3.88-8.69-4
				c-6.05-0.2-12.11-0.18-18.16-0.09C30.05,472.32,30.03,478.32,33.9,478.27L33.9,478.27z"/>
		</g>
	</g>
	<g>
		<g>
			<path d="M57.83,502.94c-8.58-0.18-17.17-0.34-25.75-0.53c-3.86-0.08-3.86,5.92,0,6c8.58,0.18,17.17,0.34,25.75,0.53
				C61.7,509.02,61.7,503.02,57.83,502.94L57.83,502.94z"/>
		</g>
	</g>
	<g>
		<g>
			<path d="M417.96,76.46c2.82-23.84,23.88-39.66,45.9-44.49c12.36-2.71,25.11-3.02,37.71-3.22c13.47-0.21,26.94-0.39,40.41-0.58
				c54.24-0.77,108.49-1.55,162.73-2.32c52.5-0.75,105.09-2.23,157.58-0.15c49.73,1.97,100.52,6.72,148.33,21.24
				c22.23,6.75,43.98,16.01,62.89,29.67c16.57,11.96,34.43,28.56,36.98,49.89c1.96-0.27,3.93-0.53,5.89-0.8
				c-1.62-5.97-2.39-12.27-5.28-17.82c-3.16-6.08-9.3-9-15.59-11c-8.69-2.77-18.11-3.78-27.14-5.03
				c-15.44-2.14-30.95-3.75-46.48-5.12c-40.14-3.55-80.41-5.62-120.67-7.29c-46.38-1.92-92.78-3.16-139.19-4.08
				c-45.9-0.91-91.81-1.48-137.72-1.83c-38.02-0.29-76.03-0.43-114.05-0.48c-23.34-0.03-46.68,0.03-70.02-0.05
				c-7.62-0.03-16.16-1.01-23.56,0.37c-22.63,4.24-17.03,34.23-4.55,46.25c20.17,19.43,52.52,19.98,78.64,20.9
				c39.53,1.39,79.12,1.49,118.66,2.08c79.43,1.19,158.86,2.37,238.29,3.56c39.5,0.59,79,1.24,118.5,1.76
				c36.45,0.49,73.72,1.25,109.86-4.36c13.83-2.15,27.59-6.06,38.6-15.03c1.31-1.07,0.98-3.13,0-4.24
				c-7.14-8.12-20.09-8.07-30.15-9.31c-8.38-1.04-16.78-1.92-25.19-2.72c-20.7-1.97-41.45-3.45-62.2-4.74
				c-51.63-3.21-103.34-5.23-155.04-6.88c-55.38-1.77-110.78-3.04-166.18-4.03c-47.9-0.86-95.81-1.5-143.72-1.98
				c-32.53-0.32-65.14-1.19-97.67-0.65c-10.04,0.17-20,1-29.89,2.74c-3.8,0.67-2.19,6.45,1.6,5.79c21.21-3.75,42.99-2.55,64.46-2.4
				c15.88,0.11,31.75,0.24,47.63,0.39c45.64,0.42,91.28,1,136.92,1.76c54.44,0.91,108.87,2.07,163.29,3.67
				c52.24,1.54,104.48,3.42,156.67,6.32c38.96,2.16,78.12,4.39,116.8,9.72c6.48,0.89,13.84,1.37,18.43,6.58c0-1.41,0-2.83,0-4.24
				c-11.88,9.68-27.93,12.68-42.76,14.4c-17.62,2.05-35.4,2.87-53.13,3.24c-37.98,0.79-76.02-0.41-113.99-0.98
				c-76.44-1.14-152.87-2.28-229.31-3.43c-38.22-0.57-76.44-1.14-114.66-1.71c-19.28-0.29-38.57-0.49-57.84-1.04
				c-15.85-0.45-32.01-0.47-47.6-3.71c-12.49-2.59-25.93-6.92-35.21-16.11c-6.05-6-8.72-13.96-8.65-22.45
				c0.13-15.87,16.73-13.61,28.31-13.53c20.12,0.14,40.24,0.05,60.36,0.06c34.97,0.02,69.94,0.12,104.91,0.33
				c43.24,0.27,86.47,0.71,129.7,1.42c45.32,0.75,90.64,1.78,135.94,3.34c41.27,1.42,82.54,3.23,123.74,6.11
				c31.26,2.19,62.87,4.43,93.73,10.08c6.84,1.25,16.79,2.77,20.99,8.98c3.51,5.18,4.01,12.08,5.61,17.99
				c0.85,3.15,6.3,2.65,5.89-0.8c-0.99-8.28-3.3-16.16-8.04-23.03c-5.83-8.44-12.72-16.12-20.42-22.9
				c-15.89-13.99-34.69-24.19-54.31-31.94C987.57,30.38,936.53,24.21,887.33,21c-55.5-3.62-111.18-2.17-166.74-1.37
				c-57.55,0.82-115.1,1.64-172.65,2.46c-15.75,0.22-31.51,0.41-47.26,0.68c-14.02,0.24-28.23,0.73-41.88,4.24
				c-23.52,6.05-43.88,24.49-46.83,49.46C411.51,80.29,417.51,80.26,417.96,76.46L417.96,76.46z"/>
		</g>
	</g>
	<g>
		<g>
			<path d="M454.87,69.9c14.18,1.14,23.86-13.42,29.07-24.69c0.68-1.47,1.33-2.96,1.91-4.47c0.17-0.44,0.41-1.78,0.74-2.09
				c0.89-0.87-1.08-0.1,0.81,0.13c3.54,0.43,7.6,2.93,10.98,4.13c7.22,2.55,14.53,4.81,21.92,6.82
				c28.83,7.82,58.55,11.55,88.19,14.69c18.83,2,37.67,3.8,56.48,5.98c-0.71-1.71-1.41-3.41-2.12-5.12c2.48-1.94,2.61-0.6,1.08-0.86
				c-0.93-0.16-2.06,0.01-3,0.01c-3.62,0.01-7.24,0.01-10.86,0.02c-12.14,0.01-24.27,0.01-36.41,0
				c-34.63-0.02-69.27-0.09-103.9-0.22c-18.29-0.07-36.59-0.16-54.88-0.31C451,63.87,451,69.87,454.87,69.9
				c64.6,0.53,129.21,0.59,193.82,0.54c4.14,0,8.29-0.01,12.43-0.02c1.97-0.01,4.34,0.37,5.98-0.91c2.31-1.81,0.11-4.86-2.12-5.12
				c-31.81-3.7-63.8-6.07-95.49-10.78c-14.68-2.19-29.29-4.93-43.67-8.64c-7.11-1.84-14.17-3.91-21.14-6.24
				c-3.42-1.14-6.81-2.34-10.18-3.61c-2.64-0.99-6.16-3.24-9.05-2.99c-2.44,0.21-3.53,1.79-4.35,3.87
				c-1.51,3.85-2.86,7.59-4.9,11.22c-4.42,7.82-11.2,17.5-21.32,16.69C451.02,63.6,451.04,69.6,454.87,69.9z"/>
		</g>
	</g>
	<g>
		<g>
			<path d="M884.46,144.95c1.22,4.85-1.47,6.76-3.84,10.4c-1.99,3.05-2.61,6.69-2.6,10.27c0.01,3.86,6.01,3.87,6,0
				c-0.01-2.67,0.38-5.16,1.92-7.38c1.08-1.56,2.52-2.71,3.43-4.41c1.73-3.23,1.76-7,0.89-10.48
				C889.31,139.62,883.52,141.2,884.46,144.95L884.46,144.95z"/>
		</g>
	</g>
	<g>
		<g>
			<path d="M915.55,144.36c-1.1,3.69-0.86,7.74,1.31,11.01c0.96,1.44,2.37,2.42,3.53,3.66c2,2.16,2.61,4.7,2.58,7.6
				c-0.04,3.86,5.96,3.86,6,0c0.04-3.49-0.71-6.96-2.7-9.89c-2.56-3.76-6.53-5.46-4.94-10.79
				C922.44,142.25,916.66,140.66,915.55,144.36L915.55,144.36z"/>
		</g>
	</g>
	<g>
		<g>
			<path d="M641.46,140.95c1.22,4.72-1.21,6.96-3.91,10.39c-1.81,2.31-2.56,4.31-2.53,7.29c0.04,3.86,6.04,3.87,6,0
				c-0.04-3.78,3.61-5.63,5.31-8.72c1.76-3.21,1.81-7.08,0.92-10.55C646.28,135.62,640.49,137.21,641.46,140.95L641.46,140.95z"/>
		</g>
	</g>
	<g>
		<g>
			<path d="M672.55,140.36c-1.1,3.47-0.91,7.46,1.06,10.6c1.88,3.01,6.43,4.83,6.36,8.67c-0.07,3.86,5.93,3.86,6,0
				c0.05-3.1-0.87-5.14-2.95-7.4c-3-3.25-6.24-5.38-4.69-10.28C679.51,138.26,673.72,136.68,672.55,140.36L672.55,140.36z"/>
		</g>
	</g>
</g>
<g id="smoke" class="st0">
	<g class="st1">
		<g>
			<path d="M232.14-46.04c3.17-1.35,6.25-2.91,9.12-4.83c3.2-2.13,0.2-7.33-3.03-5.18c-2.87,1.92-5.95,3.47-9.12,4.83
				c-1.49,0.64-1.82,2.83-1.08,4.1C228.93-45.58,230.64-45.4,232.14-46.04L232.14-46.04z"/>
		</g>
	</g>
	<g class="st1">
		<g>
			<path d="M136.25-50.54c-4.61,2.93-10.25,5.96-15.83,4.03c-5.63-1.94-7.4-7.93-5.09-13.08c2.24-5,7.77-7.68,12.93-8.59
				c6.74-1.19,12.66,0.67,17.74,5.15c7.73,6.81,14.5,13.71,24.08,18.07c10.18,4.64,22.42,6.11,33.53,5.93c3.86-0.06,3.87-6.06,0-6
				c-17.14,0.27-33.71-4.01-46.6-15.73c-4.62-4.2-8.67-9.26-14.52-11.8c-5.78-2.51-12.73-2.55-18.73-0.71
				c-10.12,3.11-18.88,13.36-14.25,24.32c5.37,12.72,20.63,9.41,29.79,3.59C142.53-47.43,139.52-52.62,136.25-50.54L136.25-50.54z"
				/>
		</g>
	</g>
	<g class="st1">
		<g>
			<path d="M225.38-116.78c-16.46-21.67-43.85-27.9-69.83-25.23c-17.15,1.76-33.81,6.4-50.79,9.19
				c-13.63,2.24-36.76,2.99-38.44-15.99c-0.64-7.26,3.99-15.62,11.4-17.35c8.22-1.91,15.61,4.59,17.38,12.22
				c0.87,3.76,6.66,2.17,5.79-1.6c-2.95-12.7-17.57-21.43-29.61-14.44c-12.39,7.2-14.17,24.52-5.07,34.98
				c11.44,13.15,30.73,9.77,45.82,6.96c19.62-3.66,39.28-9.41,59.43-8.55c18.59,0.8,37.21,7.64,48.75,22.83
				C222.5-110.72,227.72-113.71,225.38-116.78L225.38-116.78z"/>
		</g>
	</g>
	<g class="st1">
		<g>
			<path d="M162.67-86.77c-25.04-21.71-60.03-25.37-91.31-17.61c-18.13,4.5-36.12,12.32-55.08,12.09
				c-15.94-0.19-39.4-9.8-36.28-29.65c1.67-10.63,11.73-15.98,21.67-16.63c4.94-0.32,10.57,0.17,14.12,4.06
				c4.44,4.85,2.14,11.69-4.19,12.9c-3.79,0.72-2.18,6.51,1.6,5.79c7.97-1.52,12.89-9.55,10.24-17.34
				c-2.89-8.49-11.96-11.65-20.2-11.48c-9.18,0.2-18.75,3.38-24.51,10.88c-4.96,6.47-6.17,15.27-3.61,22.97
				c6.48,19.55,29.68,25.76,48.07,24.23c23.24-1.94,44.55-13.25,67.78-15.24c23.99-2.06,48.94,3.19,67.47,19.25
				C161.34-80.01,165.6-84.23,162.67-86.77L162.67-86.77z"/>
		</g>
	</g>
</g>
<g id="right_x5F_wheel">
	<g>
		<g>
			<path d="M1335.9,661.95c5.89-44.96-21.39-90.22-62.65-108.06c-36.12-15.62-81.15-12.14-111.82,13.64
				c-30.44,25.59-39.93,69.5-30.22,107.02c5.46,21.1,16.9,40.93,34.31,54.33c17.97,13.83,40.84,20.72,63.29,22.03
				c25.9,1.51,51.1-5.82,70.84-22.89c19.12-16.53,32.37-40.26,36.14-65.26c0.57-3.78-5.21-5.41-5.79-1.6
				c-6.5,43.1-40.96,79.99-85.24,83.59c-21.2,1.72-43.65-2.4-62.54-12.3c-19.04-9.98-33.09-26.47-40.97-46.39
				c-13.56-34.29-9.7-76.82,15.12-105.17c25.02-28.57,66.8-36.39,102.3-25.93c45.6,13.44,77.46,59.29,71.22,107
				C1329.4,665.77,1335.41,665.73,1335.9,661.95z"/>
		</g>
	</g>
	<g>
		<g>
			<path d="M1271.2,696.95c-20.17,14.95-51.51,20.41-74.36,8.16c-23.2-12.43-29.71-42.88-26.07-67.1
				c1.82-12.1,6.55-24.09,15.37-32.8c9.58-9.46,22.96-13.66,36.12-14.69c26.66-2.09,54.37,6.06,66.75,31.6
				c12.77,26.36,4.33,57.6-18.42,75.29c-3.04,2.37,1.23,6.59,4.24,4.24c22.01-17.12,31.26-45.91,23.22-72.69
				c-3.91-13.04-11.97-24.84-23.17-32.68c-12.47-8.74-28.13-11.77-43.11-12.04c-14.29-0.26-29.34,2.23-41.54,10.07
				c-11.23,7.22-18.79,18.53-22.74,31.15c-7.94,25.37-3.95,60.36,17.18,78.53c24.36,20.95,65.09,16.27,89.55-1.87
				C1277.3,699.86,1274.31,694.65,1271.2,696.95z"/>
		</g>
	</g>
	<g>
		<g>
			<path d="M1263.09,629.01c3-4.33,6-8.67,9-13c-1.57,0.2-3.14,0.4-4.71,0.61c8.11,6.66,11.97,16.65,13.12,26.88c1-1,2-2,3-3
				c-5.33,0-10.67,0-16,0c1,1,2,2,3,3c-0.11-7.25-3.33-12.66-7.88-18.12c-2.47-2.97-6.7,1.29-4.24,4.24
				c3.53,4.24,6.03,8.28,6.12,13.88c0.03,1.62,1.35,3,3,3c5.33,0,10.67,0,16,0c1.49,0,3.18-1.38,3-3
				c-1.32-11.74-5.51-23.43-14.88-31.12c-1.57-1.29-3.54-1.09-4.71,0.61c-3,4.33-6,8.67-9,13
				C1255.71,629.17,1260.9,632.17,1263.09,629.01z"/>
		</g>
	</g>
	<g>
		<g>
			<path d="M1266.88,662.16c5.24,0.59,10.47,1.19,15.71,1.78c-0.96-1.27-1.93-2.53-2.89-3.8c-2.05,10.33-9.07,18.39-17.56,24.25
				c1.37,0.36,2.74,0.72,4.1,1.08c-2.52-4.7-5.04-9.4-7.56-14.1c-0.36,1.37-0.72,2.74-1.08,4.1c6.33-3.52,9.51-8.94,12.17-15.53
				c1.44-3.58-4.36-5.14-5.79-1.6c-2.07,5.12-4.51,9.22-9.41,11.94c-1.45,0.81-1.83,2.7-1.08,4.1c2.52,4.7,5.04,9.4,7.56,14.1
				c0.72,1.35,2.8,1.97,4.1,1.08c9.71-6.71,17.95-15.97,20.31-27.84c0.41-2.07-0.87-3.57-2.89-3.8c-5.24-0.59-10.47-1.19-15.71-1.78
				C1263.05,655.72,1263.09,661.73,1266.88,662.16z"/>
		</g>
	</g>
	<g>
		<g>
			<path d="M1235.3,684.52c2.81,4.46,5.62,8.92,8.43,13.38c0.36-1.37,0.72-2.74,1.08-4.1c-9.34,4.83-20.04,4.13-29.86,1.2
				c0.6,1.47,1.2,2.94,1.79,4.41c2.09-4.91,4.18-9.81,6.27-14.72c-1.13,0.46-2.26,0.92-3.39,1.38c6.41,2.61,12.55,1.78,19.06-0.16
				c3.69-1.1,2.12-6.9-1.59-5.79c-5.61,1.68-10.37,2.4-15.87,0.16c-1.09-0.44-2.92,0.27-3.39,1.38c-2.09,4.91-4.18,9.81-6.27,14.72
				c-0.76,1.78-0.24,3.8,1.79,4.41c11.41,3.41,23.7,3.78,34.48-1.81c1.41-0.73,1.91-2.79,1.08-4.1c-2.81-4.46-5.62-8.92-8.43-13.38
				C1238.43,678.24,1233.23,681.24,1235.3,684.52z"/>
		</g>
	</g>
	<g>
		<g>
			<path d="M1202.65,670.11c-3.45,3.99-6.9,7.97-10.35,11.96c1.41,0,2.83,0,4.24,0c-7.36-7.51-9.88-17.96-9.92-28.22c-1,1-2,2-3,3
				c5.3,0.57,10.6,1.15,15.91,1.72c-1-1-2-2-3-3c-0.64,6.9,1.88,12.51,5.65,18.17c2.13,3.2,7.32,0.2,5.18-3.03
				c-3.22-4.85-5.37-9.25-4.83-15.15c0.16-1.74-1.51-2.84-3-3c-5.3-0.57-10.6-1.15-15.91-1.72c-1.61-0.17-3.01,1.52-3,3
				c0.05,11.85,3.21,23.82,11.68,32.46c1.07,1.1,3.19,1.22,4.24,0c3.45-3.99,6.9-7.97,10.35-11.96
				C1209.41,671.44,1205.18,667.18,1202.65,670.11z"/>
		</g>
	</g>
	<g>
		<g>
			<path d="M1202.09,634.57c-5.22-0.75-10.43-1.5-15.65-2.25c0.7,1.23,1.4,2.46,2.1,3.69c2.36-10.27,9.67-18.08,18.32-23.68
				c-1.37-0.36-2.74-0.72-4.1-1.08c2.38,4.77,4.76,9.54,7.14,14.32c0.36-1.37,0.72-2.74,1.08-4.1c-6.13,3.17-9.54,8.27-12.27,14.48
				c-1.54,3.5,3.63,6.56,5.18,3.03c2.33-5.31,4.86-9.61,10.12-12.33c1.51-0.78,1.77-2.72,1.08-4.1c-2.38-4.77-4.76-9.54-7.14-14.32
				c-0.7-1.4-2.81-1.91-4.1-1.08c-9.92,6.43-18.37,15.48-21.08,27.27c-0.33,1.43,0.43,3.45,2.1,3.69c5.22,0.75,10.43,1.5,15.65,2.25
				C1204.27,640.9,1205.9,635.12,1202.09,634.57z"/>
		</g>
	</g>
	<g>
		<g>
			<path d="M1232.01,617.17c-2.24-4.77-4.47-9.54-6.71-14.32c-0.6,1.47-1.2,2.94-1.79,4.41c9.86-3.62,20.36-1.96,29.79,2.18
				c-0.36-1.37-0.72-2.74-1.08-4.1c-2.68,4.61-5.36,9.22-8.05,13.83c1.37-0.36,2.74-0.72,4.1-1.08c-6.34-3.57-12.62-3.49-19.66-2.3
				c-3.8,0.64-2.19,6.43,1.6,5.79c5.41-0.92,10.18-1.04,15.04,1.69c1.41,0.79,3.28,0.35,4.1-1.08c2.68-4.61,5.36-9.22,8.05-13.83
				c0.74-1.28,0.42-3.45-1.08-4.1c-10.87-4.77-23-6.99-34.42-2.79c-1.93,0.71-2.66,2.55-1.79,4.41c2.24,4.77,4.47,9.54,6.71,14.32
				C1228.47,623.69,1233.64,620.65,1232.01,617.17z"/>
		</g>
	</g>
	<g>
		<g>
			<path d="M1210.68,652.91c0.95,13.01,11.55,21.34,24.47,19.93c11.97-1.31,21.08-10.76,19.02-23.13
				c-1.98-11.87-13.04-23.16-25.73-21.37C1216.71,629.98,1210.6,642.03,1210.68,652.91c0.03,3.86,6.03,3.87,6,0
				c-0.05-7.02,2.92-15.44,10.12-18.06c9.38-3.42,18.27,5.02,20.88,13.37c6.61,21.2-29.42,26.17-30.99,4.69
				C1216.4,649.08,1210.39,649.05,1210.68,652.91z"/>
		</g>
	</g>
	<g>
		<g>
			<path d="M1214.44,656c3.89,0.22,7.8,0.41,11.66-0.22c2.75-0.45,7.54-1.26,8.75-4.26c1.29-3.2-2.17-5.97-4.22-7.83
				c-3.03-2.74-6.39-5.04-10.09-6.77c-3.48-1.62-6.53,3.55-3.03,5.18c2.18,1.02,4.27,2.2,6.22,3.63c1.09,0.8,2.12,1.69,3.11,2.61
				c0.42,0.39,2.24,1.72,2.28,2.03c0.29-0.71,0.59-1.41,0.88-2.12c-1.3,1.65-5.83,1.83-7.61,1.92c-2.65,0.14-5.3-0.02-7.94-0.17
				C1210.59,649.78,1210.6,655.78,1214.44,656L1214.44,656z"/>
		</g>
	</g>
	<g>
		<g>
			<path d="M1223.94,670.14c4.95-1.07,15.94-2.77,18.62-7.95c2.55-4.94-5.36-10.33-7.85-13.53c0.16,1.21,0.31,2.42,0.47,3.64
				c-1.4,0.76-1.18,0.87,0.66,0.32c1.04-0.19,2.08-0.38,3.13-0.57c1.23-0.23,2.49-0.4,3.66-0.87c1.86-0.75,3.67-2.09,4.13-4.18
				c1.27-5.76-7.31-13.29-10.77-16.91c-2.67-2.8-6.91,1.45-4.24,4.24c1.93,2.03,3.8,4.11,5.53,6.31c0.71,0.9,1.97,2.12,2.4,3.21
				c0.62,1.56,0.7,1.36-0.74,2.13c-2.76,1.48-7.33-0.17-8.93,3.3c-0.63,1.36-0.42,2.48,0.47,3.64c1.03,1.33,2.48,2.37,3.59,3.64
				c0.86,0.97,1.64,1.99,2.34,3.07c-0.24,0.3-0.55,0.5-0.94,0.61c-0.9,1.34-4.82,2.05-6.39,2.51c-2.21,0.65-4.47,1.13-6.72,1.62
				C1218.57,665.17,1220.17,670.96,1223.94,670.14L1223.94,670.14z"/>
		</g>
	</g>
</g>
<g id="left_x5F_wheel">
	<g>
		<g>
			<path d="M262.23,543.84c-41.67,11.19-72.51,50.21-75.85,92.91c-2.93,37.52,13.98,76.87,45.14,98.52
				c35.25,24.48,83.57,19.22,117.53-4.95c17.34-12.34,31.68-29.39,38.5-49.74c7.58-22.6,5.57-48.04-1.98-70.38
				c-8.02-23.73-23.22-44.23-45.43-56.34C316.65,541.04,288.19,537.4,262.23,543.84c-3.75,0.93-2.16,6.72,1.6,5.79
				c22.53-5.59,47.13-3.1,68.15,6.8c19.18,9.04,33.85,24.14,42.94,43.23c9.49,19.93,13.76,43.67,10.24,65.55
				c-3.32,20.65-14.38,38.68-29.86,52.51c-29.31,26.2-74.69,36.87-110.74,18.38c-31.48-16.15-50.59-50.87-52.35-85.62
				c-2.28-45.08,27.48-89.01,71.62-100.86C267.55,548.62,265.97,542.83,262.23,543.84z"/>
		</g>
	</g>
	<g>
		<g>
			<path d="M319.32,590.49c21.41,12.79,37.94,39.36,35.81,64.85c-2.17,26-27.22,43.53-50.53,49.88
				c-12.51,3.41-26.33,3.85-38.39-1.48c-11.36-5.02-19.74-14.69-25.62-25.39c-12.81-23.33-16.89-52.95,1.39-74.55
				C261.16,581.16,293.78,576.02,319.32,590.49c3.36,1.91,6.39-3.28,3.03-5.18c-24.88-14.1-55.44-11.42-77.39,7.08
				c-10.52,8.86-18.31,21.44-20.69,35.06c-2.66,15.26,0.86,30.84,6.81,44.91c5.15,12.18,12.64,23.6,23.41,31.49
				c11.62,8.51,26.26,11.11,40.36,9.4c26.06-3.17,55.51-20.01,64.02-46.2c9.92-30.54-10.51-66.19-36.53-81.73
				C319.02,583.32,316,588.51,319.32,590.49z"/>
		</g>
	</g>
	<g>
		<g>
			<path d="M265.95,620.33c-4.79-2.19-9.59-4.38-14.38-6.58c0.36,1.37,0.72,2.74,1.08,4.1c5.15-9.19,14.43-14.57,24.3-17.5
				c-1.23-0.7-2.46-1.4-3.69-2.1c0.94,5.25,1.87,10.5,2.81,15.75c0.7-1.23,1.4-2.46,2.1-3.69c-6.79,1.32-11.46,5.28-15.84,10.47
				c-2.47,2.93,1.75,7.2,4.24,4.24c3.76-4.46,7.37-7.8,13.2-8.93c1.69-0.33,2.36-2.2,2.1-3.69c-0.94-5.25-1.87-10.5-2.81-15.75
				c-0.28-1.58-2.25-2.52-3.69-2.1c-11.33,3.36-21.97,9.72-27.88,20.26c-0.73,1.31-0.42,3.42,1.08,4.1
				c4.79,2.19,9.59,4.38,14.38,6.58C266.41,627.1,269.46,621.93,265.95,620.33z"/>
		</g>
	</g>
	<g>
		<g>
			<path d="M297.48,611.07c-0.33-5.26-0.67-10.52-1-15.78c-1,1-2,2-3,3c10.53,0.22,19.61,5.9,26.85,13.18c0-1.41,0-2.83,0-4.24
				c-4.18,3.31-8.37,6.62-12.55,9.92c1.41,0,2.83,0,4.24,0c-4.35-5.34-10.12-7.59-16.74-8.98c-3.77-0.79-5.38,4.99-1.6,5.79
				c5.71,1.2,10.35,2.84,14.09,7.44c1.1,1.36,3.08,0.92,4.24,0c4.18-3.31,8.37-6.62,12.55-9.92c1.28-1.01,1.04-3.2,0-4.24
				c-8.37-8.43-18.97-14.69-31.09-14.94c-1.55-0.03-3.1,1.4-3,3c0.33,5.26,0.67,10.52,1,15.78
				C291.72,614.91,297.73,614.93,297.48,611.07z"/>
		</g>
	</g>
	<g>
		<g>
			<path d="M325.18,637.55c3.9-3.55,7.79-7.1,11.69-10.65c-1.57-0.2-3.14-0.4-4.71-0.61c6.62,8.61,7.93,19.35,6.72,29.89
				c1.27-0.96,2.53-1.93,3.8-2.89c-5.2-1.2-10.39-2.39-15.59-3.59c0.7,1.23,1.4,2.46,2.1,3.69c1.52-7.11-0.31-13.1-3.53-19.47
				c-1.74-3.45-6.92-0.41-5.18,3.03c2.47,4.89,4.09,9.4,2.93,14.85c-0.33,1.53,0.44,3.31,2.1,3.69c5.2,1.2,10.39,2.39,15.59,3.59
				c2.07,0.48,3.57-0.92,3.8-2.89c1.31-11.44-0.37-23.59-7.54-32.92c-1.2-1.56-3.14-2.04-4.71-0.61c-3.9,3.55-7.79,7.1-11.69,10.65
				C318.07,635.91,322.33,640.14,325.18,637.55z"/>
		</g>
	</g>
	<g>
		<g>
			<path d="M316.75,672.51c4.53,2.69,9.06,5.39,13.59,8.08c-0.36-1.37-0.72-2.74-1.08-4.1c-6.09,8.55-16.14,12.75-26.18,14.58
				c1.27,0.96,2.53,1.93,3.8,2.89c-0.37-5.32-0.73-10.64-1.1-15.96c-1,1-2,2-3,3c7.24-0.61,12.43-4.02,17.6-8.96
				c2.8-2.67-1.45-6.91-4.24-4.24c-3.95,3.78-7.8,6.73-13.36,7.21c-1.53,0.13-3.12,1.27-3,3c0.37,5.32,0.73,10.64,1.1,15.96
				c0.14,2.06,1.79,3.26,3.8,2.89c11.7-2.14,22.74-7.48,29.76-17.34c0.95-1.33,0.22-3.33-1.08-4.1c-4.53-2.69-9.06-5.39-13.59-8.08
				C316.45,665.35,313.43,670.54,316.75,672.51z"/>
		</g>
	</g>
	<g>
		<g>
			<path d="M281.64,679.46c0.18,5.27,0.36,10.53,0.54,15.8c1-1,2-2,3-3c-10.51-0.53-19.41-6.55-26.42-14.04
				c-0.2,1.57-0.4,3.14-0.61,4.71c4.28-3.18,8.56-6.36,12.84-9.55c-1.37-0.36-2.74-0.72-4.1-1.08c4.43,5.78,9.94,8.35,16.96,10.04
				c3.75,0.9,5.35-4.88,1.6-5.79c-5.24-1.26-9.99-2.88-13.37-7.28c-0.9-1.17-2.68-2.14-4.1-1.08c-4.28,3.18-8.56,6.36-12.84,9.55
				c-1.57,1.17-2.04,3.18-0.61,4.71c8.13,8.69,18.55,15.18,30.66,15.8c1.58,0.08,3.05-1.44,3-3c-0.18-5.27-0.36-10.53-0.54-15.8
				C287.51,675.61,281.51,675.59,281.64,679.46z"/>
		</g>
	</g>
	<g>
		<g>
			<path d="M259.71,652.47c-4.31,3.04-8.61,6.08-12.92,9.12c1.37,0.36,2.74,0.72,4.1,1.08c-5.33-9.06-5.31-19.76-2.89-29.73
				c-1.23,0.7-2.46,1.4-3.69,2.1c5.01,1.83,10.02,3.66,15.03,5.49c-0.7-1.23-1.4-2.46-2.1-3.69c-2.28,6.55-1.21,12.6,1.08,19.03
				c1.29,3.61,7.09,2.05,5.79-1.6c-1.96-5.47-3.02-10.25-1.08-15.84c0.56-1.62-0.66-3.16-2.1-3.69c-5.01-1.83-10.02-3.66-15.03-5.49
				c-1.49-0.54-3.33,0.62-3.69,2.1c-2.8,11.53-2.65,23.9,3.5,34.36c0.77,1.31,2.77,2.02,4.1,1.08c4.31-3.04,8.61-6.08,12.92-9.12
				C265.86,655.45,262.87,650.24,259.71,652.47z"/>
		</g>
	</g>
	<g>
		<g>
			<path d="M308.17,660.2c8.37-10.01,6.66-23.3-3.57-31.35c-9.38-7.38-22.61-7.06-29.73,3.15c-6.86,9.82-6.89,25.31,3.08,33.1
				C287.44,672.53,300.55,668.1,308.17,660.2c2.68-2.78-1.55-7.03-4.24-4.24c-5.18,5.37-13.99,9.53-21.12,5.26
				c-7.98-4.79-8.23-16.22-4.29-23.7c10.16-19.32,39.18,1.97,25.41,18.44C301.47,658.9,305.69,663.17,308.17,660.2z"/>
		</g>
	</g>
	<g>
		<g>
			<path d="M307.4,655.06c-2.5-2.73-5.02-5.43-8.04-7.59c-2.22-1.59-5.82-4.01-8.69-3.38c-3.68,0.81-3.38,5.18-3.24,8.12
				c0.2,4.29,1.02,8.51,2.54,12.53c1.35,3.58,7.16,2.03,5.79-1.6c-0.85-2.25-1.53-4.56-1.92-6.94c-0.22-1.32-0.34-2.66-0.41-4
				c-0.03-0.56-0.4-2.85-0.24-3.05c-0.71,0.29-1.41,0.59-2.12,0.88c2.01-0.27,5.17,2.46,6.6,3.69c1.98,1.7,3.73,3.65,5.5,5.58
				C305.77,662.15,310.01,657.9,307.4,655.06L307.4,655.06z"/>
		</g>
	</g>
	<g>
		<g>
			<path d="M309.49,637.89c-4.28-2.69-11.84-8-17.31-6.74c-5.65,1.3-3.73,11.37-4.16,15.26c0.73-0.96,1.47-1.93,2.2-2.89
				c0.02-0.01-5.82-4.44-7.27-4.82c-2.06-0.55-4.2-0.1-5.69,1.43c-3.82,3.92-3.05,13.71-3.11,18.71c-0.04,3.86,5.96,3.86,6,0
				c0.03-2.63,0.12-5.26,0.38-7.89c0.15-1.48,0.31-2.96,0.55-4.43c0.33-2.01-0.19-2.09,1.97-1.12c2.75,1.23,5.41,5.19,8.77,3.91
				c1.38-0.53,2.04-1.46,2.2-2.89c0.22-1.92-0.14-3.93,0.02-5.89c0.19-2.45-0.29-3.16,2.13-2.73c3.65,0.64,7.24,3.37,10.29,5.29
				C309.74,645.13,312.75,639.95,309.49,637.89L309.49,637.89z"/>
		</g>
	</g>
</g>
<g id="exhaust" class="st0">
	<g class="st1">
		<g>
			<path d="M-56.27,669.13c-2.44,4.13-5.54,8.67-10.35,10.22c-5.62,1.81-10.81-1.34-12.11-7c-2.87-12.51,13.38-21.45,23.78-19.3
				c5.27,1.09,10.23,3.28,15.54,4.29c5.28,1,10.7,1.61,16.08,1.38c11.21-0.49,22.72-4.76,32.57-9.95c3.42-1.8,0.39-6.98-3.03-5.18
				c-15.25,8.03-32.09,11.57-48.93,6.82c-6.47-1.83-12.83-4.67-19.7-3.67c-6.41,0.93-12.59,4.53-16.85,9.38
				c-6.89,7.83-8.47,21.51,1.61,27.69c10.81,6.63,21.32-2.78,26.56-11.65C-49.13,668.82-54.31,665.8-56.27,669.13L-56.27,669.13z"/>
		</g>
	</g>
	<g class="st1">
		<g>
			<path d="M-114.81,599.36c-11.27-7.46-26.33-14.1-39.86-8.6c-12.94,5.26-11.72,20.3-3.39,29.27c23.23,25.01,59.43,3.83,85.45-3.1
				c20.21-5.39,42.19-3.48,62.52,0.52c3.77,0.74,5.39-5.04,1.6-5.79c-17.52-3.44-36.75-5.67-54.5-2.92
				c-17.84,2.77-33.86,11.4-51.34,15.37c-14.46,3.28-38.79,2.09-43.76-15.69c-2.95-10.54,7.77-14.02,16.29-13.45
				c8.87,0.59,16.68,4.75,23.96,9.57C-114.61,606.67-111.61,601.48-114.81,599.36L-114.81,599.36z"/>
		</g>
	</g>
	<g class="st1">
		<g>
			<path d="M-68.33,627.16c-23.09,29.6-65.81,17.88-97.05,11.72c-15.29-3.02-34.98-8.09-48.71,2.16
				c-11.37,8.48-12.96,25.37-2.1,35.04c11.64,10.37,29.64,2.8,33.08-11.6c0.9-3.75-4.89-5.36-5.79-1.6
				c-3.62,15.16-24.23,15.85-28.27,0.51c-1.91-7.28,1.73-14.46,7.92-18.42c6.33-4.05,14.19-4.26,21.45-3.64
				c30.09,2.58,59,14.44,89.63,9.81c13.76-2.08,25.49-8.73,34.07-19.73C-61.74,628.39-65.96,624.11-68.33,627.16L-68.33,627.16z"/>
		</g>
	</g>
</g>
<g id="paul_signature" class="st0">
	<text transform="matrix(1 0 0 1 207.4326 425.1938)" class="st1 st2 st3">Benlife</text>
</g>
</svg>
